<svg width="512" height="512" viewBox="0 0 512 512" fill="none" xmlns="http://www.w3.org/2000/svg">
  <!-- Purple background like sidebar logo -->
  <rect width="512" height="512" rx="96" fill="#8b5cf6"/>

  <!-- Server unit 1 -->
  <rect x="112" y="128" width="288" height="72" rx="12" fill="#1e1b4b" fill-opacity="0.4"/>
  <rect x="112" y="128" width="288" height="72" rx="12" stroke="white" stroke-opacity="0.2" stroke-width="2"/>
  <!-- Bars -->
  <rect x="144" y="152" width="120" height="24" rx="6" fill="white"/>
  <rect x="280" y="152" width="88" height="24" rx="6" fill="white" fill-opacity="0.5"/>

  <!-- Server unit 2 -->
  <rect x="112" y="220" width="288" height="72" rx="12" fill="#1e1b4b" fill-opacity="0.4"/>
  <rect x="112" y="220" width="288" height="72" rx="12" stroke="white" stroke-opacity="0.2" stroke-width="2"/>
  <!-- Bars -->
  <rect x="144" y="244" width="120" height="24" rx="6" fill="white"/>
  <rect x="280" y="244" width="88" height="24" rx="6" fill="white" fill-opacity="0.5"/>

  <!-- Server unit 3 -->
  <rect x="112" y="312" width="288" height="72" rx="12" fill="#1e1b4b" fill-opacity="0.4"/>
  <rect x="112" y="312" width="288" height="72" rx="12" stroke="white" stroke-opacity="0.2" stroke-width="2"/>
  <!-- Bars -->
  <rect x="144" y="336" width="120" height="24" rx="6" fill="white"/>
  <rect x="280" y="336" width="88" height="24" rx="6" fill="white" fill-opacity="0.5"/>
</svg>
